# xmcd CD database file
#
# Track frame offsets:
#	150
#	23325
#	47622
#	74790
#	101860
#	133875
#	166295
#	194807
#
# Disc length: 2999 seconds
#
# Revision: 0
# Processed by: cddbd v1.5.2PL0 Copyright (c) Steve Scherf et al.
# Submitted via: CDex 1.51
#
DISCID=760bb508
DTITLE=Midori - A Promise Of Love
DYEAR=2012
DGENRE=New Age
TTITLE0=A Promise Of Love
TTITLE1=Together As One
TTITLE2=Two Flames
TTITLE3=My Valentine
TTITLE4=The Yearning
TTITLE5=All Of My Heart
TTITLE6=Love Is All We Need
TTITLE7=Cupid's Arrow
EXTD=YEAR: 2012
EXTT0=
EXTT1=
EXTT2=
EXTT3=
EXTT4=
EXTT5=
EXTT6=
EXTT7=
PLAYORDER=
